<?xml version="1.0" standalone="no"?>
<!DOCTYPE svg PUBLIC "-//W3C//DTD SVG 20010904//EN"
 "http://www.w3.org/TR/2001/REC-SVG-20010904/DTD/svg10.dtd">
<svg version="1.0" xmlns="http://www.w3.org/2000/svg"
 width="640.000000pt" height="640.000000pt" viewBox="0 0 640.000000 640.000000"
 preserveAspectRatio="xMidYMid meet">

<g transform="translate(0.000000,640.000000) scale(0.100000,-0.100000)"
fill="#000000" stroke="none">
<path d="M2860 5891 c-151 -21 -341 -60 -354 -72 -6 -5 -18 -9 -29 -9 -18 0
-208 -61 -262 -85 -16 -7 -55 -23 -85 -35 -120 -48 -307 -152 -450 -249 -335
-227 -585 -493 -815 -866 -37 -59 -134 -251 -155 -305 -11 -30 -29 -73 -40
-96 -10 -22 -23 -63 -29 -90 -5 -27 -15 -67 -21 -89 -13 -49 -34 -165 -100
-578 -12 -71 -23 -134 -24 -140 -6 -21 -34 -121 -48 -167 -18 -63 -15 -223 5
-283 9 -26 37 -86 61 -135 25 -48 57 -123 71 -167 15 -44 37 -103 50 -131 25
-55 30 -57 165 -91 l35 -9 -1 -69 c0 -39 -4 -95 -8 -125 l-7 -55 17 33 c16 32
44 44 44 20 1 -18 28 -53 36 -46 3 4 -5 47 -17 97 -33 127 -28 137 81 167 90
25 114 43 126 99 3 17 10 35 14 40 3 6 15 37 25 70 16 54 62 157 93 210 31 53
54 136 59 210 4 78 -1 115 -41 285 -25 107 -18 217 28 425 33 147 87 323 130
418 8 17 29 66 47 107 18 41 43 92 56 112 13 21 23 40 23 43 0 4 11 21 25 39
14 18 25 36 25 40 0 21 159 224 240 306 111 113 175 168 283 240 140 93 403
205 567 240 30 6 84 18 119 26 158 34 583 42 801 15 74 -9 255 -48 285 -61 11
-5 38 -14 60 -20 93 -27 328 -133 386 -173 13 -10 47 -32 74 -50 81 -51 214
-165 305 -262 47 -50 87 -92 90 -95 3 -3 10 -12 15 -21 6 -9 28 -41 51 -70 83
-111 156 -243 254 -464 42 -96 103 -295 125 -410 7 -38 21 -108 31 -155 27
-124 28 -668 1 -780 -10 -41 -22 -102 -28 -135 -5 -33 -13 -71 -18 -85 -5 -14
-17 -52 -26 -85 -57 -198 -196 -517 -285 -655 -16 -25 -37 -58 -46 -75 -80
-143 -335 -435 -479 -550 -27 -22 -52 -43 -55 -46 -16 -20 -178 -131 -270
-186 -116 -68 -273 -140 -360 -164 -33 -9 -44 -13 -102 -39 -13 -5 -45 -14
-73 -19 -27 -6 -70 -15 -95 -21 -72 -17 -155 -27 -318 -41 -135 -11 -169 -11
-298 5 -80 10 -170 26 -201 37 -31 10 -64 19 -74 19 -18 0 -95 23 -134 40 -11
4 -40 15 -65 23 -81 27 -210 75 -253 95 -23 11 -73 34 -112 52 -97 44 -192 92
-312 157 -57 30 -103 52 -103 49 0 -10 168 -136 260 -194 226 -142 524 -269
746 -318 35 -7 94 -20 132 -29 123 -27 285 -40 497 -40 221 1 367 12 500 40
44 9 100 21 124 26 60 12 122 28 146 38 11 4 65 22 120 40 55 18 118 41 140
51 22 10 67 30 100 45 128 58 242 120 338 183 55 37 107 72 116 77 64 41 237
190 342 294 104 104 249 273 294 342 6 8 40 60 76 115 63 94 124 206 184 339
15 33 35 78 45 100 10 22 22 51 25 65 4 14 15 43 25 66 10 22 22 58 26 80 3
21 10 44 14 49 4 6 15 44 24 85 9 41 21 93 27 115 37 157 52 316 52 570 0 204
-11 367 -32 470 -46 225 -113 454 -164 554 -9 19 -17 38 -17 42 0 35 -193 385
-265 482 -11 14 -31 42 -45 62 -14 19 -33 46 -43 58 -10 12 -28 35 -40 51 -42
56 -253 269 -347 350 -192 166 -489 352 -680 426 -30 11 -73 29 -95 39 -22 10
-56 22 -75 26 -19 4 -39 11 -45 15 -5 3 -37 14 -70 24 -33 9 -81 23 -107 31
-64 19 -300 64 -373 70 -33 3 -168 8 -300 10 -191 3 -265 0 -365 -14z m-2209
-3046 c25 -65 37 -165 19 -165 -6 0 -27 15 -46 34 -29 29 -34 41 -34 79 0 115
28 139 61 52z m487 9 c10 -35 10 -54 0 -85 -12 -42 -62 -94 -80 -83 -27 17 26
214 57 214 6 0 16 -21 23 -46z"/>
<path d="M3597 3827 c4 -8 67 -85 138 -171 72 -86 132 -161 133 -166 2 -6
-396 -10 -1072 -10 -592 0 -1076 -3 -1076 -7 0 -5 31 -45 68 -90 37 -45 87
-106 111 -137 l44 -56 1243 0 c1307 0 1273 -1 1227 42 -10 8 -124 149 -253
312 l-235 296 -168 0 c-138 0 -167 -2 -160 -13z"/>
<path d="M2110 2990 c0 -5 39 -58 87 -117 99 -124 166 -206 173 -213 3 -3 10
-13 15 -22 6 -9 60 -78 120 -152 l110 -135 168 -1 c92 0 167 2 167 4 0 3 -63
80 -140 173 -77 92 -140 171 -140 176 0 4 482 7 1070 7 683 0 1070 4 1070 10
0 5 -48 70 -106 145 l-106 135 -1244 0 c-781 0 -1244 -4 -1244 -10z"/>
</g>
</svg>
